<svg width="28" height="28" viewBox="0 0 28 28" fill="none" xmlns="http://www.w3.org/2000/svg">
<path d="M4.36546 21.6475C5.76546 23.3333 8.36946 23.3333 13.5798 23.3333H14.4198C19.6301 23.3333 22.2353 23.3333 23.6353 21.6475M4.36546 21.6475C2.96546 19.9605 3.44612 17.4008 4.40629 12.2792C5.08879 8.63917 5.42946 6.818 6.72562 5.74233M23.6353 21.6475C25.0353 19.9605 24.5546 17.4008 23.5945 12.2792C22.912 8.63917 22.5701 6.818 21.274 5.74233M21.274 5.74233C19.979 4.66667 18.1251 4.66667 14.421 4.66667H13.5786C9.87446 4.66667 8.02179 4.66667 6.72562 5.74233" stroke="black" stroke-width="1.5"/>
<path d="M10.6982 9.33334C10.9393 10.0165 11.3863 10.608 11.9776 11.0264C12.5689 11.4448 13.2755 11.6695 13.9999 11.6695C14.7243 11.6695 15.4309 11.4448 16.0222 11.0264C16.6135 10.608 17.0605 10.0165 17.3016 9.33334" stroke="black" stroke-width="1.5" stroke-linecap="round"/>
</svg>
